# xmcd
#
# Track frame offsets: 
#        150
#        16312
#        41407
#        63887
#        82965
#        98567
#        115095
#        134820
#        160045
#        186425
#        204037
#        222975
#        244017
#
# Disc length: 3468 seconds
#
# Revision: 2
# Processed by: cddbd v1.5.2PL0 Copyright (c) Steve Scherf et al.
# Submitted via: ExactAudioCopyFreeDBPlugin 1.0
#
DISCID=a50d8a0d
DTITLE=Various Artist - Mixing In Action
DYEAR=1993
DGENRE=Country
TTITLE0=Freddie Mercury - Living On My Own
TTITLE1=Vasco Rossi - Delusa
TTITLE2=Pet Shop Boys - Go West
TTITLE3=Haddaway - Life
TTITLE4=Ace Of Base - All That She Wants
TTITLE5=Shara Nelson - Down That Road (Single Edit)
TTITLE6=Tina Turner - I Don't Wanna Fight (Single Edit)
TTITLE7=Culture Beat - Mr. Vain
TTITLE8=B.G. The Prince Of Rap - Can We Get Enough?
TTITLE9=Duran Duran - Too Much Information (Album Version Edit)
TTITLE10=Terence Trent D'arby - Delicate
TTITLE11=Kate Bush - Rubberband Girl
TTITLE12=Billy Idol - Shock To The System
EXTD=
EXTT0=
EXTT1=
EXTT2=
EXTT3=
EXTT4=
EXTT5=
EXTT6=
EXTT7=
EXTT8=
EXTT9=
EXTT10=
EXTT11=
EXTT12=
PLAYORDER=
